<svg xmlns="http://www.w3.org/2000/svg" version="1.1" xmlns:xlink="http://www.w3.org/1999/xlink" xmlns:svgjs="http://svgjs.dev/svgjs" width="180" height="180"><svg xmlns="http://www.w3.org/2000/svg" version="1.1" viewBox="0 0 180 180">
  <defs>
    <style>
      .cls-1 {
        fill: none;
      }

      .cls-2 {
        display: none;
      }

      .cls-2, .cls-3 {
        fill: #ff3103;
      }

      .cls-4 {
        fill: #fff;
      }
    </style>
  </defs>
  <!-- Generator: Adobe Illustrator 28.6.0, SVG Export Plug-In . SVG Version: 1.2.0 Build 709)  -->
  <g>
    <g id="SvgjsG1004">
      <g>
        <rect class="cls-1" x="52.5" y="157.7" width="27.3" height="8.8"></rect>
        <polygon class="cls-1" points="108 129.4 108 120.4 70.9 120.4 70.9 129.5 80 129.5 80 157.6 99 157.6 99 129.4 108 129.4"></polygon>
        <rect class="cls-1" x="99" y="157.7" width="28.2" height="8.9"></rect>
        <rect class="cls-1" x="42.7" y="147.7" width="9.7" height="9.8"></rect>
        <rect class="cls-1" x="127.3" y="147.9" width="9" height="9.7"></rect>
        <rect class="cls-3" x="79.8" y="157.6" width=".2" height=".1"></rect>
        <path class="cls-3" d="M168,11V0H11v11H0v157h11v12h157v-12h12V11h-12ZM136.3,157.6h-9c0,.1,0,.1,0,.1v8.9h-28.2v-8.9h0c0-.1-19-.1-19-.1h0c0,.1-.2.1-.2.1v8.8h-27.3v-8.8h0v-.2h-9.7v-9.8h9.7v9.8h0v.2h27.3c0-.1.2-.1.2-.1v-28.1h-9.1v-9.1h37.1v9h-9v28.2h0c0,.1,28.2.1,28.2.1h0c0-.1,0-.1,0-.1v-9.7h9v9.7Z"></path>
        <polygon class="cls-2" points="52.4 157.5 52.4 157.6 52.5 157.7 52.5 157.5 52.4 157.5"></polygon>
        <rect class="cls-2" x="127.2" y="157.6" width="0" height=".1"></rect>
      </g>
      <g>
        <polygon class="cls-4" points="78.7 97.1 10.3 96.6 10.3 86.8 78.7 87.3 78.7 97.1"></polygon>
        <polygon class="cls-4" points="78.7 71 10.3 70.5 10.3 60.8 78.7 61.3 78.7 71"></polygon>
        <polygon class="cls-4" points="78.7 45 10.3 44.5 10.3 34.7 78.7 35.2 78.7 45"></polygon>
        <rect class="cls-4" x="-2.5" y="47.8" width="35.2" height="9.7" transform="translate(-37.6 67.7) rotate(-90)"></rect>
        <polygon class="cls-4" points="69 96.4 69 61.1 78.7 61.2 78.7 96.4 69 96.4"></polygon>
        <rect class="cls-4" x="1" y="56.9" width="87.7" height="19.2" transform="translate(-21.7 111.3) rotate(-90)"></rect>
      </g>
      <g>
        <polygon class="cls-4" points="163.3 97.1 94.9 96.6 94.9 86.8 163.3 87.3 163.3 97.1"></polygon>
        <polygon class="cls-4" points="163.3 71 94.9 70.5 94.9 60.8 163.3 61.3 163.3 71"></polygon>
        <polygon class="cls-4" points="163.3 45 94.9 44.5 94.9 34.7 163.3 35.2 163.3 45"></polygon>
        <rect class="cls-4" x="82.1" y="47.8" width="35.2" height="9.7" transform="translate(47 152.3) rotate(-90)"></rect>
        <polygon class="cls-4" points="153.6 96.4 153.6 61.1 163.3 61.2 163.3 96.4 153.6 96.4"></polygon>
        <rect class="cls-4" x="85.6" y="56.9" width="87.7" height="19.2" transform="translate(62.9 195.9) rotate(-90)"></rect>
      </g>
    </g>
  </g>
</svg><style>@media (prefers-color-scheme: light) { :root { filter: none; } }
@media (prefers-color-scheme: dark) { :root { filter: none; } }
</style></svg>